<svg xmlns="http://www.w3.org/2000/svg" viewBox="0 0 393.31 393.31"><defs><style>.cls-1{fill:#2a2f55;}</style></defs><g id="Layer_2" data-name="Layer 2"><g id="Layer_1-2" data-name="Layer 1"><path class="cls-1" d="M393.31,196.77C393.09,306,303.14,394.15,195.45,393.3,89.86,392.47-1,304,0,194.87,1,87.4,91.09-.32,198,0,305.14.33,393.31,88.94,393.31,196.77ZM285.44,255.56c-7.58,1.35-14.17.89-18.63-6a13.76,13.76,0,0,0-2-2.17q-43.24-43.32-86.49-86.62-19-19-38-38.06a4.73,4.73,0,0,0-2.86-1.55c-17.67-.1-35.35-.14-53,0-5.9,0-9.13,3.33-9.13,9q0,70.88,0,141.75c0,5.77,3.57,9.24,9.3,9.27q9.8,0,19.58,0c5.91,0,8.61-2.53,9.07-8.44.08-1,.05-2,.05-3q0-60.35,0-120.68c0-1.12.1-2.24.16-3.6,2.88,0,5.52.11,8.14,0a6,6,0,0,1,5,2Q192.35,213.26,258.21,279c.23.24.43.56.71.69,1.13.52,2.28,1.39,3.43,1.4q25.27.14,50.55.05c7.23,0,11.22-4,11.22-11.13q0-69,0-138c0-6.71-3.67-10.69-10.37-10.84s-13.55-.11-20.32,0c-5.14.1-7.52,2.49-7.94,7.58-.09,1-.05,2-.05,3V255.56ZM246.28,157q0,14.86,0,29.74a18,18,0,0,0,.21,3.2c.56,3.17,2,4.4,5.24,4.43s6.44,0,9.66,0c5.8,0,7.29-1.47,7.41-7.32,0-.74,0-1.48,0-2.23V136.73c0-3.31,0-6.61,0-9.92-.06-4.42-1.21-5.62-5.57-5.7-3.8-.07-7.6,0-11.4,0-4.4,0-5.54,1.19-5.55,5.64Q246.27,141.85,246.28,157Zm-92.34,87.88q0-15.85,0-31.7c0-3.55-1.23-4.76-4.78-4.81-3.22-.05-6.44,0-9.66,0-5.38,0-6.39,1-6.4,6.32V256c0,6.6,0,13.2,0,19.81,0,4.2,1.16,5.31,5.29,5.34,3.46,0,6.93,0,10.4,0,4.12,0,5.14-1,5.14-5.1Q154,260.45,153.94,244.85Z"/></g></g></svg>